<mxfile host="app.diagrams.net" modified="2023-04-13T09:52:05.395Z" agent="Mozilla/5.0 (Windows NT 10.0; Win64; x64) AppleWebKit/537.36 (KHTML, like Gecko) Chrome/111.0.0.0 Safari/537.36" etag="dUxyNTVPNUfz8syBiyb-" version="21.1.7" type="github">
  <diagram id="C5RBs43oDa-KdzZeNtuy" name="Global representation">
    <mxGraphModel dx="1032" dy="548" grid="1" gridSize="10" guides="1" tooltips="1" connect="1" arrows="1" fold="1" page="1" pageScale="1" pageWidth="827" pageHeight="1169" math="0" shadow="0">
      <root>
        <mxCell id="WIyWlLk6GJQsqaUBKTNV-0" />
        <mxCell id="WIyWlLk6GJQsqaUBKTNV-1" parent="WIyWlLk6GJQsqaUBKTNV-0" />
        <mxCell id="2v4OP23qexoj3YyM8K59-2" value="" style="edgeStyle=orthogonalEdgeStyle;rounded=0;orthogonalLoop=1;jettySize=auto;html=1;" edge="1" parent="WIyWlLk6GJQsqaUBKTNV-1" source="2v4OP23qexoj3YyM8K59-0" target="2v4OP23qexoj3YyM8K59-1">
          <mxGeometry relative="1" as="geometry" />
        </mxCell>
        <mxCell id="2v4OP23qexoj3YyM8K59-0" value="Launch Python file" style="rounded=1;whiteSpace=wrap;html=1;" vertex="1" parent="WIyWlLk6GJQsqaUBKTNV-1">
          <mxGeometry x="114" y="40" width="120" height="40" as="geometry" />
        </mxCell>
        <mxCell id="2v4OP23qexoj3YyM8K59-4" value="" style="edgeStyle=orthogonalEdgeStyle;rounded=0;orthogonalLoop=1;jettySize=auto;html=1;" edge="1" parent="WIyWlLk6GJQsqaUBKTNV-1" source="2v4OP23qexoj3YyM8K59-1" target="2v4OP23qexoj3YyM8K59-3">
          <mxGeometry relative="1" as="geometry" />
        </mxCell>
        <mxCell id="2v4OP23qexoj3YyM8K59-1" value="Aspreno overwrites sys.excepthook with its exception handler" style="whiteSpace=wrap;html=1;rounded=1;" vertex="1" parent="WIyWlLk6GJQsqaUBKTNV-1">
          <mxGeometry x="274" y="30" width="120" height="60" as="geometry" />
        </mxCell>
        <mxCell id="2v4OP23qexoj3YyM8K59-6" value="" style="edgeStyle=orthogonalEdgeStyle;rounded=0;orthogonalLoop=1;jettySize=auto;html=1;" edge="1" parent="WIyWlLk6GJQsqaUBKTNV-1" source="2v4OP23qexoj3YyM8K59-3" target="2v4OP23qexoj3YyM8K59-5">
          <mxGeometry relative="1" as="geometry" />
        </mxCell>
        <mxCell id="2v4OP23qexoj3YyM8K59-8" value="" style="edgeStyle=orthogonalEdgeStyle;rounded=0;orthogonalLoop=1;jettySize=auto;html=1;" edge="1" parent="WIyWlLk6GJQsqaUBKTNV-1" source="2v4OP23qexoj3YyM8K59-3" target="2v4OP23qexoj3YyM8K59-7">
          <mxGeometry relative="1" as="geometry">
            <Array as="points">
              <mxPoint x="450" y="100" />
              <mxPoint x="354" y="100" />
            </Array>
          </mxGeometry>
        </mxCell>
        <mxCell id="2v4OP23qexoj3YyM8K59-3" value="Run code" style="whiteSpace=wrap;html=1;rounded=1;" vertex="1" parent="WIyWlLk6GJQsqaUBKTNV-1">
          <mxGeometry x="434" y="40" width="120" height="40" as="geometry" />
        </mxCell>
        <mxCell id="2v4OP23qexoj3YyM8K59-5" value="Exit after execution" style="whiteSpace=wrap;html=1;rounded=1;" vertex="1" parent="WIyWlLk6GJQsqaUBKTNV-1">
          <mxGeometry x="594" y="40" width="120" height="40" as="geometry" />
        </mxCell>
        <mxCell id="2v4OP23qexoj3YyM8K59-10" value="" style="edgeStyle=orthogonalEdgeStyle;rounded=0;orthogonalLoop=1;jettySize=auto;html=1;" edge="1" parent="WIyWlLk6GJQsqaUBKTNV-1" source="2v4OP23qexoj3YyM8K59-7" target="2v4OP23qexoj3YyM8K59-9">
          <mxGeometry relative="1" as="geometry" />
        </mxCell>
        <mxCell id="2v4OP23qexoj3YyM8K59-7" value="Exception occurred" style="whiteSpace=wrap;html=1;rounded=1;" vertex="1" parent="WIyWlLk6GJQsqaUBKTNV-1">
          <mxGeometry x="294" y="120" width="120" height="40" as="geometry" />
        </mxCell>
        <mxCell id="2v4OP23qexoj3YyM8K59-11" value="" style="edgeStyle=orthogonalEdgeStyle;rounded=0;orthogonalLoop=1;jettySize=auto;html=1;exitX=0.499;exitY=0.037;exitDx=0;exitDy=0;exitPerimeter=0;entryX=0.5;entryY=1;entryDx=0;entryDy=0;" edge="1" parent="WIyWlLk6GJQsqaUBKTNV-1" source="2v4OP23qexoj3YyM8K59-9" target="2v4OP23qexoj3YyM8K59-3">
          <mxGeometry relative="1" as="geometry" />
        </mxCell>
        <mxCell id="2v4OP23qexoj3YyM8K59-13" value="" style="edgeStyle=orthogonalEdgeStyle;rounded=0;orthogonalLoop=1;jettySize=auto;html=1;exitX=0.948;exitY=0.503;exitDx=0;exitDy=0;exitPerimeter=0;entryX=0;entryY=0.5;entryDx=0;entryDy=0;" edge="1" parent="WIyWlLk6GJQsqaUBKTNV-1" source="2v4OP23qexoj3YyM8K59-9" target="2v4OP23qexoj3YyM8K59-12">
          <mxGeometry relative="1" as="geometry" />
        </mxCell>
        <mxCell id="2v4OP23qexoj3YyM8K59-9" value="Inside&lt;br&gt;try-except&lt;br&gt;block?" style="rhombus;whiteSpace=wrap;html=1;rounded=1;" vertex="1" parent="WIyWlLk6GJQsqaUBKTNV-1">
          <mxGeometry x="454" y="100" width="80" height="80" as="geometry" />
        </mxCell>
        <mxCell id="2v4OP23qexoj3YyM8K59-14" style="edgeStyle=orthogonalEdgeStyle;rounded=0;orthogonalLoop=1;jettySize=auto;html=1;entryX=0.883;entryY=1.009;entryDx=0;entryDy=0;entryPerimeter=0;" edge="1" parent="WIyWlLk6GJQsqaUBKTNV-1" source="2v4OP23qexoj3YyM8K59-12" target="2v4OP23qexoj3YyM8K59-3">
          <mxGeometry relative="1" as="geometry">
            <mxPoint x="540" y="90" as="targetPoint" />
            <Array as="points">
              <mxPoint x="700" y="140" />
              <mxPoint x="700" y="100" />
              <mxPoint x="540" y="100" />
              <mxPoint x="540" y="90" />
            </Array>
          </mxGeometry>
        </mxCell>
        <mxCell id="2v4OP23qexoj3YyM8K59-12" value="Call sys.excepthook" style="whiteSpace=wrap;html=1;rounded=1;" vertex="1" parent="WIyWlLk6GJQsqaUBKTNV-1">
          <mxGeometry x="570" y="120" width="120" height="40" as="geometry" />
        </mxCell>
      </root>
    </mxGraphModel>
  </diagram>
</mxfile>
